<?xml version="1.0" encoding="utf-8"?>
<!-- Generator: Adobe Illustrator 18.1.1, SVG Export Plug-In . SVG Version: 6.00 Build 0)  -->
<!DOCTYPE svg PUBLIC "-//W3C//DTD SVG 1.1//EN" "http://www.w3.org/Graphics/SVG/1.1/DTD/svg11.dtd">
<svg version="1.1" id="Layer_1" xmlns="http://www.w3.org/2000/svg" xmlns:xlink="http://www.w3.org/1999/xlink" x="0px" y="0px"
	 viewBox="0 0 72 72" enable-background="new 0 0 72 72" xml:space="preserve">
<g>
	<path fill="#000" d="M35.7,8.2c-2.1-3.1-5.6-5.1-9.1-5.1c-6.1,0-10.9,4.9-10.9,10.9c0,0.6,0.2,1.4,0.3,2.5
		c-0.6-0.1-1.6-0.3-2.5-0.3c-6.2,0-10.9,4.8-10.9,10.8c0,3.5,2,7,5.2,9.1c-3.2,2.1-5.2,5.5-5.2,9c0,6,4.9,10.9,10.9,10.9
		c0.7,0,1.6-0.2,2.4-0.3c-0.2,1-0.3,1.8-0.3,2.4c0,6.2,4.8,10.9,10.9,10.9c3.6,0,6.9-1.9,9-5c2.1,3,5.7,5,9.1,5
		c6,0,10.8-4.9,10.8-10.9c0-0.8-0.2-1.7-0.3-2.4c1.1,0.2,1.9,0.3,2.5,0.3c6.1,0,10.9-4.9,10.9-10.9c0-3.5-1.9-7-5-9.1
		c3.1-2.1,5-5.5,5-9.1c0-5.9-4.9-10.8-11-10.8c-0.7,0-1.6,0.2-2.4,0.3c0.1-0.6,0.3-1.6,0.3-2.5C55.4,7.8,50.8,3,44.7,3
		C41.3,3.1,37.9,5,35.7,8.2z M21.5,19.2L21.5,19.2c-0.5-0.5-2.2-2.4-2.2-5.3l0,0c0-4.5,3.8-7.3,7.3-7.3c2,0,3.8,0.7,5.2,2.1
		c1.4,1.4,2.1,3.2,2.1,5.2v17c0,2.1-1.9,3.3-3.2,3.3H13.6c-1.9,0-3.9-0.7-5.3-2.1c-1-1-2.1-2.6-2.1-5.1c0-2,0.8-3.9,2.1-5.2
		s3.1-2.1,5.1-2.1c2.5,0,4.3,1.2,5.3,2.2c0,0,0.7,0.7,0.8,0.8c-0.2,0.4-0.3,0.9-0.3,1.6c0,2.5,2,4.4,4.4,4.4c1.2,0,2.2-0.4,3-1.2
		c0.8-0.8,1.3-2.1,1.3-3.2s-0.5-2.4-1.3-3.2c-0.8-0.8-1.9-1.2-3.1-1.2c-0.7,0-1.2,0.2-1.5,0.3C22.2,19.8,21.5,19.2,21.5,19.2z
		 M37.5,13.9c0-1.9,0.7-3.9,2.1-5.3c1-1,2.6-2.1,5.1-2.1c2,0,3.9,0.8,5.2,2.1c1.4,1.3,2.1,3.2,2.1,5.1l0,0c0,2.5-1.2,4.3-2.2,5.3
		c0,0-0.7,0.7-0.8,0.8c-0.4-0.2-0.9-0.2-1.6-0.2c-2.5,0-4.4,2-4.4,4.4c0,1.2,0.4,2.2,1.2,3s2.1,1.3,3.2,1.3l0,0
		c1.2,0,2.4-0.5,3.2-1.3s1.2-1.9,1.2-3.1l0,0c0-0.7-0.2-1.2-0.2-1.5c0.2-0.2,0.8-0.9,0.8-0.9c0.5-0.5,2.3-2.2,5.3-2.2
		c4.5,0,7.3,3.8,7.3,7.3c0,2-0.7,3.8-2.1,5.2S59.7,34,57.8,34h-17c-2.1,0-3.2-1.9-3.2-3.2l0,0V13.9z M8.5,50.4
		c-1.4-1.4-2.2-3.3-2.2-5.2l0,0c0-2,0.7-3.8,2.1-5.2c1.4-1.4,3.2-2.2,5.2-2.2h17c2.1,0,3.3,1.9,3.3,3.2v17c0,2-0.8,3.9-2.2,5.3
		c-1,1-2.6,2.1-5.1,2.1c-4,0-7.3-3.3-7.3-7.2l0,0c0-2.5,1.2-4.3,2.2-5.3c0,0,0.7-0.7,0.8-0.8c0.4,0.2,0.9,0.2,1.6,0.2
		c2.5,0,4.4-2,4.4-4.4c0-1.2-0.4-2.2-1.2-3s-2.1-1.3-3.2-1.3c-1.2,0-2.4,0.5-3.2,1.3s-1.2,1.9-1.2,3.1l0,0c0,0.7,0.2,1.2,0.3,1.5
		c-0.2,0.2-0.8,0.9-0.8,0.9c-0.5,0.5-2.4,2.2-5.3,2.2C11.7,52.5,9.9,51.7,8.5,50.4z M39.7,63.3c-1.4-1.4-2.2-3.2-2.2-5.2v-17
		c0-2.1,2-3.3,3.3-3.3h17c3.5,0,7.3,2.8,7.3,7.3c0,4-3.3,7.3-7.2,7.3c-2.5,0-4.3-1.2-5.3-2.2c0,0-0.7-0.7-0.8-0.8
		c0.2-0.4,0.2-0.9,0.2-1.6l0,0c0-2.5-2-4.4-4.4-4.4c-1.2,0-2.2,0.4-3,1.2s-1.3,2.1-1.3,3.2c0,1.2,0.5,2.4,1.3,3.2s1.9,1.2,3.1,1.2
		c0.7,0,1.2-0.2,1.5-0.3c0.2,0.2,0.9,0.8,0.9,0.8c0.5,0.5,2.2,2.3,2.2,5.3l0,0c0,4.5-3.8,7.3-7.3,7.3C43,65.4,41.1,64.7,39.7,63.3z"
		/>
</g>
</svg>