<?xml version="1.0" encoding="utf-8"?>
<!-- Generator: Adobe Illustrator 18.1.1, SVG Export Plug-In . SVG Version: 6.00 Build 0)  -->
<!DOCTYPE svg PUBLIC "-//W3C//DTD SVG 1.1//EN" "http://www.w3.org/Graphics/SVG/1.1/DTD/svg11.dtd">
<svg version="1.1" id="Layer_1" xmlns="http://www.w3.org/2000/svg" xmlns:xlink="http://www.w3.org/1999/xlink" x="0px" y="0px"
	 viewBox="0 0 384 106" enable-background="new 0 0 384 106" xml:space="preserve">
<g>
	<g>
		<g>
			<path fill="#FFFFFF" d="M4.8,27h12.3L33,70.3h0.2l16-43.3H61v53.3h-8.3v-46h-0.2l-16.9,46h-7l-16.9-46h-0.2v46H4.8V27z"/>
			<path fill="#FFFFFF" d="M67.2,61.9c0-12.4,5.8-19.2,17.5-19.2c11.7,0,17.6,6.8,17.6,19.2c0,12.4-5.9,19.2-17.6,19.2
				C73.1,81.1,67.2,74.3,67.2,61.9z M84.8,77.9c7.5,0,8.4-9.3,8.4-16c0-6.7-0.9-16-8.4-16c-7.4,0-8.3,9.3-8.3,16
				C76.4,68.6,77.3,77.9,84.8,77.9z"/>
			<path fill="#FFFFFF" d="M108.9,43.5h8.4v8.7h0.2c1.3-2.7,5.2-9.6,13.9-9.6c7,0,10,5.4,10,10.7v26.9H133v-23c0-4.6-0.8-8.8-5-8.8
				c-8.3,0-10.7,12-10.7,16.6v15.2h-8.4V43.5z"/>
			<path fill="#FFFFFF" d="M171.7,80.6c-1.7,0.4-3.9,0.5-5.8,0.5c-7.9,0-12.5-2.2-12.5-9.3V47.5H147v-4h6.3v-8.7l8.4-4.7v13.4h10.8
				v4h-10.8v21.2c0,5.4,0.6,8,6,8c1.3,0,2.8-0.2,3.9-0.6V80.6z"/>
			<path fill="#FFFFFF" d="M178,43.5h8.4v9.3h0.2c2.7-4.9,5.6-9.7,12.8-10.2v8.1c-8.1,0.2-13,2.8-13,12.7v16.8H178V43.5z"/>
			<path fill="#FFFFFF" d="M233.8,79.1c-3.5,1.3-6.6,2.1-11.6,2.1c-11,0-19.9-6-19.9-20.9c0-10.2,4.4-17.6,16.9-17.6
				c12.8,0,15.3,8,15.3,15.1h-23.8c0,7.3,3.5,19.3,15.4,19.3c2.6,0,5.1-0.5,7.6-1.5V79.1z M226.3,54.2c0-2.9-1.1-8.3-7.3-8.3
				c-6.5,0-7.8,6.2-7.9,8.3H226.3z M220.3,27h8.8L221,37.1h-6.3L220.3,27z"/>
			<path fill="#FFFFFF" d="M261.4,75.2h-0.2c-1.3,2.2-4.8,5.9-11.2,5.9c-6.3,0-10.8-4.1-10.8-9.2c0-11.4,16.9-11.9,22.2-12.1v-3.2
				c0-4,0-10.7-5.6-10.7c-5.2,0-6.1,3.7-6.4,8h-8.8c0.4-5.5,2.8-11.3,15.3-11.3c12.9,0,14,6.7,14,13.9v23.7h-8.4V75.2z M261.4,63.1
				c-3.5,0.2-13,0.9-13,7.7c0,3.3,2.1,5.5,4.8,5.5c2.9,0,8.2-2.6,8.2-8.9V63.1z"/>
			<path fill="#FFFFFF" d="M278.6,27h8.4v53.3h-8.4V27z"/>
		</g>
	</g>
	<path fill="#FFFFFF" d="M340.6,19.8c-2.6-3.8-6.8-6.2-11.1-6.2c-7.4,0-13.2,5.9-13.2,13.3c0,0.7,0.2,1.7,0.4,3
		c-0.7-0.1-1.9-0.4-3-0.4c-7.5,0-13.3,5.8-13.3,13.1c0,4.3,2.4,8.5,6.3,11.1c-3.9,2.6-6.3,6.7-6.3,11c0,7.3,6,13.2,13.3,13.2
		c0.9,0,2-0.2,2.9-0.4c-0.3,1.2-0.4,2.2-0.4,2.9c0,7.5,5.8,13.3,13.2,13.3c4.4,0,8.4-2.3,11-6.1c2.5,3.7,6.9,6.1,11.1,6.1
		c7.3,0,13.1-5.9,13.1-13.3c0-1-0.2-2.1-0.4-2.9c1.3,0.3,2.3,0.4,3,0.4c7.4,0,13.3-5.9,13.3-13.2c0-4.3-2.3-8.5-6.1-11.1
		c3.8-2.5,6.1-6.7,6.1-11.1c0-7.2-6-13.1-13.4-13.1c-0.9,0-2,0.2-2.9,0.4c0.1-0.7,0.4-2,0.4-3c0-7.5-5.7-13.3-13.1-13.3
		C347.4,13.6,343.2,16,340.6,19.8z M323.3,33.2L323.3,33.2c-0.6-0.6-2.7-2.9-2.7-6.4c0,0,0,0,0,0c0-5.5,4.6-8.9,8.9-8.9
		c2.4,0,4.6,0.9,6.3,2.6c1.7,1.7,2.6,3.9,2.6,6.3v20.7c0,2.6-2.3,4-3.9,4h-20.8c-2.3,0-4.7-0.9-6.4-2.6c-1.2-1.2-2.5-3.2-2.6-6.2
		c0-2.4,1-4.7,2.6-6.3c1.6-1.6,3.8-2.6,6.2-2.6c3.1,0,5.2,1.5,6.5,2.7c0,0,0.8,0.8,1,1c-0.2,0.5-0.4,1.1-0.4,1.9
		c0,3,2.4,5.4,5.4,5.4c1.4,0,2.7-0.5,3.7-1.5c1-1,1.6-2.5,1.6-3.9c0-1.4-0.6-2.9-1.6-3.9c-1-1-2.3-1.5-3.8-1.5
		c-0.8,0-1.5,0.2-1.8,0.4C324.2,34,323.3,33.2,323.3,33.2z M342.8,26.8c0-2.3,0.9-4.7,2.6-6.4c1.2-1.2,3.2-2.5,6.2-2.6
		c2.4,0,4.7,1,6.3,2.6c1.7,1.6,2.6,3.9,2.6,6.2c0,0,0,0,0,0c0,3.1-1.5,5.2-2.7,6.4c0,0-0.8,0.8-1,1c-0.5-0.2-1.1-0.3-1.9-0.3
		c-3,0-5.4,2.4-5.4,5.4c0,1.4,0.5,2.7,1.5,3.7c1,1,2.5,1.6,3.9,1.6c0,0,0,0,0,0c1.4,0,2.9-0.6,3.9-1.6c1-1,1.5-2.3,1.5-3.8
		c0,0,0,0,0,0c0-0.8-0.2-1.5-0.3-1.8c0.2-0.2,1-1.1,1-1.1c0.6-0.6,2.8-2.7,6.4-2.7c5.5,0,8.9,4.6,8.9,8.9c0,2.4-0.9,4.6-2.6,6.3
		c-1.7,1.7-3.9,2.6-6.3,2.6h-20.7c-2.6,0-3.9-2.3-3.9-3.9l0,0V26.8z M307.5,71.2c-1.7-1.7-2.7-4-2.7-6.3l0,0c0-2.4,0.9-4.6,2.6-6.3
		c1.7-1.7,3.9-2.7,6.3-2.7h20.7c2.6,0,4,2.3,4,3.9v20.7c0,2.4-1,4.7-2.7,6.4c-1.2,1.2-3.2,2.5-6.2,2.6c-4.9,0-8.9-4-8.9-8.8
		c0,0,0,0,0,0c0-3.1,1.5-5.2,2.7-6.4c0,0,0.8-0.8,1-1c0.5,0.2,1.1,0.3,1.9,0.3c3,0,5.4-2.4,5.4-5.4c0-1.4-0.5-2.7-1.5-3.7
		c-1-1-2.5-1.6-3.9-1.6c-1.4,0-2.9,0.6-3.9,1.6c-1,1-1.5,2.3-1.5,3.8c0,0,0,0,0,0c0,0.8,0.2,1.5,0.4,1.8c-0.2,0.2-1,1.1-1,1.1
		c-0.6,0.6-2.9,2.7-6.4,2.7C311.4,73.7,309.2,72.8,307.5,71.2z M345.5,86.8c-1.7-1.7-2.7-3.9-2.7-6.3V59.8c0-2.6,2.4-4,4-4h20.7
		c4.3,0,8.9,3.4,8.9,8.9c0,4.9-4,8.9-8.8,8.9c-3.1,0-5.2-1.5-6.4-2.7c0,0-0.8-0.8-1-1c0.2-0.5,0.3-1.1,0.3-1.9v0
		c0-3-2.4-5.4-5.4-5.4c-1.4,0-2.7,0.5-3.7,1.5c-1,1-1.6,2.5-1.6,3.9c0,1.4,0.6,2.9,1.6,3.9c1,1,2.3,1.5,3.8,1.5
		c0.8,0,1.5-0.2,1.8-0.4c0.2,0.2,1.1,1,1.1,1c0.6,0.6,2.7,2.8,2.7,6.4c0,0,0,0,0,0c0,5.5-4.6,8.9-8.9,8.9
		C349.4,89.4,347.2,88.5,345.5,86.8z"/>
</g>
</svg>
